
<svg xmlns="http://www.w3.org/2000/svg" version="1.1" xmlns:xlink="http://www.w3.org/1999/xlink" preserveAspectRatio="none" x="0px" y="0px" width="80px" height="80px" viewBox="0 0 80 80">
<defs>
<g id="Layer0_0_FILL">
<path fill="#1B1B1B" stroke="none" d="
M 74.65 40
Q 74.65 31.6 71.2 24.6 68.75 19.7 64.55 15.5 54.35 5.35 40 5.35 25.65 5.35 15.5 15.5 5.35 25.65 5.35 40 5.35 54.35 15.5 64.5 21.1 70.15 28 72.65 29.95 73.35 32 73.8 33.3 74.1 34.65 74.3 35.35 74.4 36 74.45 36.65 74.55 37.35 74.55 38.65 74.65 40 74.65 41.35 74.65 42.65 74.55 43.35 74.55 44 74.45 44.65 74.4 45.35 74.3 46.7 74.1 48 73.8 50.05 73.35 52 72.65 58.9 70.15 64.55 64.5 68.75 60.3 71.2 55.4 74.65 48.4 74.65 40 Z"/>
</g>

<path id="Symbol_1_0_Layer0_0_1_STROKES" stroke="#FFFFFF" stroke-width="6" stroke-linejoin="miter" stroke-linecap="butt" stroke-miterlimit="3" fill="none" d="
M 138.65 0
Q 196.1 0 236.75 40.55 253.55 57.35 263.4 77.1 277.3 104.95 277.3 138.65 277.3 172.3 263.4 200.15 253.55 219.8 236.75 236.7 214.3 259.2 186.65 269.2 178.85 272.05 170.65 273.85 165.5 275.1 160 275.8 157.3 276.2 154.65 276.5 152 276.75 149.3 276.9 144.05 277.3 138.65 277.3 133.3 277.3 128.05 276.9 125.3 276.75 122.65 276.5 120 276.2 117.3 275.8 111.9 275 106.65 273.85 98.45 272.05 90.65 269.2 63.1 259.2 40.6 236.7 0 196.05 0 138.65 0 81.15 40.6 40.55 81.25 0 138.65 0
L 138.65 78.5 154.65 87.75 154.65 208 186.65 226.5 186.65 269.2
M 138.65 78.5
L 122.65 69.3 122.65 138.65 122.65 276.5
M 122.65 138.65
L 90.65 157.15 90.65 269.2
M 154.65 208
L 154.65 276.5"/>
</defs>

<g transform="matrix( 1, 0, 0, 1, 0,0) ">
<use xlink:href="#Layer0_0_FILL"/>
</g>

<g transform="matrix( 0.25, 0, 0, 0.25, 5.3,5.3) ">
<g transform="matrix( 1, 0, 0, 1, 0,0) ">
<use xlink:href="#Symbol_1_0_Layer0_0_1_STROKES"/>
</g>
</g>
</svg>
